<svg width="24" height="24" viewBox="0 0 24 24" fill="none" xmlns="http://www.w3.org/2000/svg">
<g clip-path="url(#clip0_544_335)">
<path fill-rule="evenodd" clip-rule="evenodd" d="M24 12C24 5.37238 18.6276 0 12 0C5.37238 0 0 5.37238 0 12C0 18.6276 5.37238 24 12 24C18.6276 24 24 18.6276 24 12Z" fill="url(#paint0_linear_544_335)"/>
<path fill-rule="evenodd" clip-rule="evenodd" d="M5.16566 11.2968L12.9635 8.05864C13.7333 7.72123 16.344 6.64184 16.344 6.64184C16.344 6.64184 17.5489 6.16957 17.4486 7.31666C17.415 7.78893 17.1474 9.4416 16.8798 11.2291L16.0433 16.5245C16.0433 16.5245 15.9762 17.3004 15.4073 17.4352C14.8385 17.5701 13.9013 16.9629 13.7339 16.8281C13.6001 16.7271 11.2234 15.2093 10.3534 14.4673C10.1188 14.2647 9.85121 13.8602 10.387 13.3879C11.5918 12.2747 13.0312 10.8917 13.9013 10.0149C14.3027 9.6103 14.7047 8.66577 13.0312 9.81231L8.31211 13.0166C8.31211 13.0166 7.77687 13.354 6.77248 13.0505C5.76863 12.7469 4.59738 12.3424 4.59738 12.3424C4.59738 12.3424 3.79397 11.8362 5.16621 11.2968H5.16566Z" fill="white"/>
</g>
<defs>
<linearGradient id="paint0_linear_544_335" x1="55.3305" y1="13.2311" x2="33.6793" y2="61.3445" gradientUnits="userSpaceOnUse">
<stop stop-color="#37AEE2"/>
<stop offset="1" stop-color="#1E96C8"/>
</linearGradient>
<clipPath id="clip0_544_335">
<rect width="24" height="24" fill="white"/>
</clipPath>
</defs>
</svg>
