<svg width="19" height="19" viewBox="0 0 19 19" fill="none" xmlns="http://www.w3.org/2000/svg">
<path d="M6.70949 0.75L3.54199 3.92625" stroke="#85858B" stroke-width="1.3" stroke-miterlimit="10" stroke-linecap="round" stroke-linejoin="round"/>
<path d="M12.292 0.75L15.4595 3.92625" stroke="#85858B" stroke-width="1.3" stroke-miterlimit="10" stroke-linecap="round" stroke-linejoin="round"/>
<path d="M0.75 5.86719C0.75 4.24844 1.61625 4.11719 2.6925 4.11719H16.3075C17.3838 4.11719 18.25 4.24844 18.25 5.86719C18.25 7.74844 17.3838 7.61719 16.3075 7.61719H2.6925C1.61625 7.61719 0.75 7.74844 0.75 5.86719Z" stroke="#85858B" stroke-width="1.3"/>
<path d="M7.54004 11.25V14.3562" stroke="#85858B" stroke-width="1.3" stroke-linecap="round"/>
<path d="M11.5654 11.25V14.3562" stroke="#85858B" stroke-width="1.3" stroke-linecap="round"/>
<path d="M2.0625 7.75L3.29625 15.31C3.57625 17.0075 4.25 18.25 6.7525 18.25H12.0288C14.75 18.25 15.1525 17.06 15.4675 15.415L16.9375 7.75" stroke="#85858B" stroke-width="1.3" stroke-linecap="round"/>
</svg>
